<?xml version="1.0" encoding="UTF-8" standalone="yes"?><svg xmlns="http://www.w3.org/2000/svg" xmlns:xlink="http://www.w3.org/1999/xlink" height="625px" style="width:352px;height:625px;" version="1.1" viewBox="0 0 352 625" width="352px"><defs><filter height="300%" id="f1" width="300%" x="-1" y="-1"><feGaussianBlur result="blurOut" stdDeviation="2.0"/><feColorMatrix in="blurOut" result="blurOut2" type="matrix" values="0 0 0 0 0 0 0 0 0 0 0 0 0 0 0 0 0 0 .4 0"/><feOffset dx="4.0" dy="4.0" in="blurOut2" result="blurOut3"/><feBlend in="SourceGraphic" in2="blurOut3" mode="normal"/></filter></defs><g><ellipse cx="50.5" cy="20" fill="#000000" filter="url(#f1)" rx="10" ry="10" style="stroke: none; stroke-width: 1.0;"/><polygon fill="#FBFB77" filter="url(#f1)" points="109.5,41.1953,109.5,93.8984,328.5,93.8984,328.5,51.1953,318.5,41.1953,109.5,41.1953" style="stroke: #A80036; stroke-width: 1.0;"/><polygon fill="#FBFB77" points="109.5,41.1953,109.5,63.5469,89.5,67.5469,109.5,71.5469,109.5,93.8984,328.5,93.8984,328.5,51.1953,318.5,41.1953,109.5,41.1953" style="stroke: #A80036; stroke-width: 1.0;"/><line style="stroke: #A80036; stroke-width: 1.0;" x1="318.5" x2="318.5" y1="41.1953" y2="51.1953"/><line style="stroke: #A80036; stroke-width: 1.0;" x1="328.5" x2="318.5" y1="51.1953" y2="51.1953"/><text fill="#000000" font-family="sans-serif" font-size="13" lengthAdjust="spacingAndGlyphs" textLength="198" x="115.5" y="59.6904">Load the number 12 into register 0</text><line style="stroke: #A80036; stroke-width: 1.0;" x1="109.5" x2="328.5" y1="67.5469" y2="67.5469"/><line style="stroke: #A80036; stroke-width: 1.0;" x1="109.5" x2="328.5" y1="69.5469" y2="69.5469"/><text fill="#000000" font-family="sans-serif" font-size="13" lengthAdjust="spacingAndGlyphs" textLength="44" x="115.5" y="86.042">0x110C</text><rect fill="#FEFECE" filter="url(#f1)" height="35.0938" rx="12.5" ry="12.5" style="stroke: #A80036; stroke-width: 1.5;" width="78" x="11.5" y="50"/><text fill="#000000" font-family="sans-serif" font-size="12" lengthAdjust="spacingAndGlyphs" textLength="55" x="24.5" y="72.457">Load 0 12</text><polygon fill="#FBFB77" filter="url(#f1)" points="109.5,105.0938,109.5,157.7969,328.5,157.7969,328.5,115.0938,318.5,105.0938,109.5,105.0938" style="stroke: #A80036; stroke-width: 1.0;"/><polygon fill="#FBFB77" points="109.5,105.0938,109.5,127.4453,89.5,131.4453,109.5,135.4453,109.5,157.7969,328.5,157.7969,328.5,115.0938,318.5,105.0938,109.5,105.0938" style="stroke: #A80036; stroke-width: 1.0;"/><line style="stroke: #A80036; stroke-width: 1.0;" x1="318.5" x2="318.5" y1="105.0938" y2="115.0938"/><line style="stroke: #A80036; stroke-width: 1.0;" x1="328.5" x2="318.5" y1="115.0938" y2="115.0938"/><text fill="#000000" font-family="sans-serif" font-size="13" lengthAdjust="spacingAndGlyphs" textLength="198" x="115.5" y="123.5889">Load the number 15 into register 1</text><line style="stroke: #A80036; stroke-width: 1.0;" x1="109.5" x2="328.5" y1="131.4453" y2="131.4453"/><line style="stroke: #A80036; stroke-width: 1.0;" x1="109.5" x2="328.5" y1="133.4453" y2="133.4453"/><text fill="#000000" font-family="sans-serif" font-size="13" lengthAdjust="spacingAndGlyphs" textLength="43" x="115.5" y="149.9404">0x110F</text><rect fill="#FEFECE" filter="url(#f1)" height="35.0938" rx="12.5" ry="12.5" style="stroke: #A80036; stroke-width: 1.5;" width="78" x="11.5" y="113.8984"/><text fill="#000000" font-family="sans-serif" font-size="12" lengthAdjust="spacingAndGlyphs" textLength="55" x="24.5" y="136.3555">Load 1 15</text><polygon fill="#FBFB77" filter="url(#f1)" points="107,211.7969,107,297.2031,327,297.2031,327,221.7969,317,211.7969,107,211.7969" style="stroke: #A80036; stroke-width: 1.0;"/><polygon fill="#FBFB77" points="107,211.7969,107,250.5,87,254.5,107,258.5,107,297.2031,327,297.2031,327,221.7969,317,211.7969,107,211.7969" style="stroke: #A80036; stroke-width: 1.0;"/><line style="stroke: #A80036; stroke-width: 1.0;" x1="317" x2="317" y1="211.7969" y2="221.7969"/><line style="stroke: #A80036; stroke-width: 1.0;" x1="327" x2="317" y1="221.7969" y2="221.7969"/><text fill="#000000" font-family="sans-serif" font-size="13" lengthAdjust="spacingAndGlyphs" textLength="199" x="113" y="230.292">Compute the modulus of register 0</text><text fill="#000000" font-family="sans-serif" font-size="13" lengthAdjust="spacingAndGlyphs" textLength="195" x="113" y="246.6436">and register 1 and store the result</text><text fill="#000000" font-family="sans-serif" font-size="13" lengthAdjust="spacingAndGlyphs" textLength="79" x="113" y="262.9951">into register 2</text><line style="stroke: #A80036; stroke-width: 1.0;" x1="107" x2="327" y1="270.8516" y2="270.8516"/><line style="stroke: #A80036; stroke-width: 1.0;" x1="107" x2="327" y1="272.8516" y2="272.8516"/><text fill="#000000" font-family="sans-serif" font-size="13" lengthAdjust="spacingAndGlyphs" textLength="42" x="113" y="289.3467">0x2012</text><rect fill="#FEFECE" filter="url(#f1)" height="35.0938" rx="12.5" ry="12.5" style="stroke: #A80036; stroke-width: 1.5;" width="73" x="14" y="236.9531"/><text fill="#000000" font-family="sans-serif" font-size="12" lengthAdjust="spacingAndGlyphs" textLength="53" x="24" y="259.4102">Mod 0 1 2</text><polygon fill="#FBFB77" filter="url(#f1)" points="106,307.2031,106,376.2578,335,376.2578,335,317.2031,325,307.2031,106,307.2031" style="stroke: #A80036; stroke-width: 1.0;"/><polygon fill="#FBFB77" points="106,307.2031,106,337.7305,86,341.7305,106,345.7305,106,376.2578,335,376.2578,335,317.2031,325,307.2031,106,307.2031" style="stroke: #A80036; stroke-width: 1.0;"/><line style="stroke: #A80036; stroke-width: 1.0;" x1="325" x2="325" y1="307.2031" y2="317.2031"/><line style="stroke: #A80036; stroke-width: 1.0;" x1="335" x2="325" y1="317.2031" y2="317.2031"/><text fill="#000000" font-family="sans-serif" font-size="13" lengthAdjust="spacingAndGlyphs" textLength="204" x="112" y="325.6982">Swap the data in register 1 with the</text><text fill="#000000" font-family="sans-serif" font-size="13" lengthAdjust="spacingAndGlyphs" textLength="97" x="112" y="342.0498">data in register 0</text><line style="stroke: #A80036; stroke-width: 1.0;" x1="106" x2="335" y1="349.9063" y2="349.9063"/><line style="stroke: #A80036; stroke-width: 1.0;" x1="106" x2="335" y1="351.9063" y2="351.9063"/><text fill="#000000" font-family="sans-serif" font-size="13" lengthAdjust="spacingAndGlyphs" textLength="42" x="112" y="368.4014">0x3010</text><rect fill="#FEFECE" filter="url(#f1)" height="35.0938" rx="12.5" ry="12.5" style="stroke: #A80036; stroke-width: 1.5;" width="71" x="15" y="324.1836"/><text fill="#000000" font-family="sans-serif" font-size="12" lengthAdjust="spacingAndGlyphs" textLength="51" x="25" y="346.6406">Swap 1 0</text><polygon fill="#FBFB77" filter="url(#f1)" points="106,386.2578,106,455.3125,335,455.3125,335,396.2578,325,386.2578,106,386.2578" style="stroke: #A80036; stroke-width: 1.0;"/><polygon fill="#FBFB77" points="106,386.2578,106,416.7852,86,420.7852,106,424.7852,106,455.3125,335,455.3125,335,396.2578,325,386.2578,106,386.2578" style="stroke: #A80036; stroke-width: 1.0;"/><line style="stroke: #A80036; stroke-width: 1.0;" x1="325" x2="325" y1="386.2578" y2="396.2578"/><line style="stroke: #A80036; stroke-width: 1.0;" x1="335" x2="325" y1="396.2578" y2="396.2578"/><text fill="#000000" font-family="sans-serif" font-size="13" lengthAdjust="spacingAndGlyphs" textLength="204" x="112" y="404.7529">Swap the data in register 2 with the</text><text fill="#000000" font-family="sans-serif" font-size="13" lengthAdjust="spacingAndGlyphs" textLength="97" x="112" y="421.1045">data in register 1</text><line style="stroke: #A80036; stroke-width: 1.0;" x1="106" x2="335" y1="428.9609" y2="428.9609"/><line style="stroke: #A80036; stroke-width: 1.0;" x1="106" x2="335" y1="430.9609" y2="430.9609"/><text fill="#000000" font-family="sans-serif" font-size="13" lengthAdjust="spacingAndGlyphs" textLength="42" x="112" y="447.4561">0x3021</text><rect fill="#FEFECE" filter="url(#f1)" height="35.0938" rx="12.5" ry="12.5" style="stroke: #A80036; stroke-width: 1.5;" width="71" x="15" y="403.2383"/><text fill="#000000" font-family="sans-serif" font-size="12" lengthAdjust="spacingAndGlyphs" textLength="51" x="25" y="425.6953">Swap 2 1</text><polygon fill="#FEFECE" filter="url(#f1)" points="50.5,177.7969,62.5,189.7969,50.5,201.7969,38.5,189.7969,50.5,177.7969" style="stroke: #A80036; stroke-width: 1.5;"/><polygon fill="#FEFECE" filter="url(#f1)" points="32,475.3125,69,475.3125,81,487.3125,69,499.3125,32,499.3125,20,487.3125,32,475.3125" style="stroke: #A80036; stroke-width: 1.5;"/><text fill="#000000" font-family="sans-serif" font-size="11" lengthAdjust="spacingAndGlyphs" textLength="37" x="32" y="491.8135">Beq 1 3</text><polygon fill="#FBFB77" filter="url(#f1)" points="93,509.3125,93,578.3672,328,578.3672,328,519.3125,318,509.3125,93,509.3125" style="stroke: #A80036; stroke-width: 1.0;"/><polygon fill="#FBFB77" points="93,509.3125,93,539.8398,73,543.8398,93,547.8398,93,578.3672,328,578.3672,328,519.3125,318,509.3125,93,509.3125" style="stroke: #A80036; stroke-width: 1.0;"/><line style="stroke: #A80036; stroke-width: 1.0;" x1="318" x2="318" y1="509.3125" y2="519.3125"/><line style="stroke: #A80036; stroke-width: 1.0;" x1="328" x2="318" y1="519.3125" y2="519.3125"/><text fill="#000000" font-family="sans-serif" font-size="13" lengthAdjust="spacingAndGlyphs" textLength="206" x="99" y="527.8076">Terminate the program and print out</text><text fill="#000000" font-family="sans-serif" font-size="13" lengthAdjust="spacingAndGlyphs" textLength="124" x="99" y="544.1592">the value or register 0</text><line style="stroke: #A80036; stroke-width: 1.0;" x1="93" x2="328" y1="552.0156" y2="552.0156"/><line style="stroke: #A80036; stroke-width: 1.0;" x1="93" x2="328" y1="554.0156" y2="554.0156"/><text fill="#000000" font-family="sans-serif" font-size="13" lengthAdjust="spacingAndGlyphs" textLength="42" x="99" y="570.5107">0x0000</text><rect fill="#FEFECE" filter="url(#f1)" height="35.0938" rx="12.5" ry="12.5" style="stroke: #A80036; stroke-width: 1.5;" width="45" x="28" y="526.293"/><text fill="#000000" font-family="sans-serif" font-size="12" lengthAdjust="spacingAndGlyphs" textLength="22" x="41" y="548.75">Halt</text><ellipse cx="50.5" cy="608.3672" fill="none" filter="url(#f1)" rx="10" ry="10" style="stroke: #000000; stroke-width: 1.0;"/><ellipse cx="51" cy="608.8672" fill="#000000" filter="url(#f1)" rx="6" ry="6" style="stroke: none; stroke-width: 1.0;"/><line style="stroke: #A80036; stroke-width: 1.5;" x1="50.5" x2="50.5" y1="30" y2="50"/><polygon fill="#A80036" points="46.5,40,50.5,50,54.5,40,50.5,44" style="stroke: #A80036; stroke-width: 1.0;"/><line style="stroke: #A80036; stroke-width: 1.5;" x1="50.5" x2="50.5" y1="85.0938" y2="113.8984"/><polygon fill="#A80036" points="46.5,103.8984,50.5,113.8984,54.5,103.8984,50.5,107.8984" style="stroke: #A80036; stroke-width: 1.0;"/><line style="stroke: #A80036; stroke-width: 1.5;" x1="50.5" x2="50.5" y1="272.0469" y2="324.1836"/><polygon fill="#A80036" points="46.5,314.1836,50.5,324.1836,54.5,314.1836,50.5,318.1836" style="stroke: #A80036; stroke-width: 1.0;"/><line style="stroke: #A80036; stroke-width: 1.5;" x1="50.5" x2="50.5" y1="359.2773" y2="403.2383"/><polygon fill="#A80036" points="46.5,393.2383,50.5,403.2383,54.5,393.2383,50.5,397.2383" style="stroke: #A80036; stroke-width: 1.0;"/><line style="stroke: #A80036; stroke-width: 1.5;" x1="50.5" x2="50.5" y1="201.7969" y2="236.9531"/><polygon fill="#A80036" points="46.5,226.9531,50.5,236.9531,54.5,226.9531,50.5,230.9531" style="stroke: #A80036; stroke-width: 1.0;"/><line style="stroke: #A80036; stroke-width: 1.5;" x1="81" x2="347" y1="487.3125" y2="487.3125"/><polygon fill="#A80036" points="343,367.5547,347,357.5547,351,367.5547,347,363.5547" style="stroke: #A80036; stroke-width: 1.5;"/><line style="stroke: #A80036; stroke-width: 1.5;" x1="347" x2="347" y1="189.7969" y2="487.3125"/><line style="stroke: #A80036; stroke-width: 1.5;" x1="347" x2="62.5" y1="189.7969" y2="189.7969"/><polygon fill="#A80036" points="72.5,185.7969,62.5,189.7969,72.5,193.7969,68.5,189.7969" style="stroke: #A80036; stroke-width: 1.0;"/><line style="stroke: #A80036; stroke-width: 1.5;" x1="50.5" x2="50.5" y1="438.332" y2="475.3125"/><polygon fill="#A80036" points="46.5,465.3125,50.5,475.3125,54.5,465.3125,50.5,469.3125" style="stroke: #A80036; stroke-width: 1.0;"/><line style="stroke: #A80036; stroke-width: 1.5;" x1="50.5" x2="50.5" y1="148.9922" y2="177.7969"/><polygon fill="#A80036" points="46.5,167.7969,50.5,177.7969,54.5,167.7969,50.5,171.7969" style="stroke: #A80036; stroke-width: 1.0;"/><line style="stroke: #A80036; stroke-width: 1.5;" x1="50.5" x2="50.5" y1="499.3125" y2="526.293"/><polygon fill="#A80036" points="46.5,516.293,50.5,526.293,54.5,516.293,50.5,520.293" style="stroke: #A80036; stroke-width: 1.0;"/><line style="stroke: #A80036; stroke-width: 1.5;" x1="50.5" x2="50.5" y1="561.3867" y2="598.3672"/><polygon fill="#A80036" points="46.5,588.3672,50.5,598.3672,54.5,588.3672,50.5,592.3672" style="stroke: #A80036; stroke-width: 1.0;"/></g></svg>