<?xml version="1.0" encoding="UTF-8" standalone="yes"?><svg xmlns="http://www.w3.org/2000/svg" xmlns:xlink="http://www.w3.org/1999/xlink" height="625px" style="width:371px;height:625px;" version="1.1" viewBox="0 0 371 625" width="371px"><defs><filter height="300%" id="f1" width="300%" x="-1" y="-1"><feGaussianBlur result="blurOut" stdDeviation="2.0"/><feColorMatrix in="blurOut" result="blurOut2" type="matrix" values="0 0 0 0 0 0 0 0 0 0 0 0 0 0 0 0 0 0 .4 0"/><feOffset dx="4.0" dy="4.0" in="blurOut2" result="blurOut3"/><feBlend in="SourceGraphic" in2="blurOut3" mode="normal"/></filter></defs><g><ellipse cx="70" cy="20" fill="#000000" filter="url(#f1)" rx="10" ry="10" style="stroke: none; stroke-width: 1.0;"/><polygon fill="#FBFB77" filter="url(#f1)" points="129,41.1953,129,93.8984,348,93.8984,348,51.1953,338,41.1953,129,41.1953" style="stroke: #A80036; stroke-width: 1.0;"/><polygon fill="#FBFB77" points="129,41.1953,129,63.5469,109,67.5469,129,71.5469,129,93.8984,348,93.8984,348,51.1953,338,41.1953,129,41.1953" style="stroke: #A80036; stroke-width: 1.0;"/><line style="stroke: #A80036; stroke-width: 1.0;" x1="338" x2="338" y1="41.1953" y2="51.1953"/><line style="stroke: #A80036; stroke-width: 1.0;" x1="348" x2="338" y1="51.1953" y2="51.1953"/><text fill="#000000" font-family="sans-serif" font-size="13" lengthAdjust="spacingAndGlyphs" textLength="198" x="135" y="59.6904">Load the number 12 into register 0</text><line style="stroke: #A80036; stroke-width: 1.0;" x1="129" x2="348" y1="67.5469" y2="67.5469"/><line style="stroke: #A80036; stroke-width: 1.0;" x1="129" x2="348" y1="69.5469" y2="69.5469"/><text fill="#000000" font-family="sans-serif" font-size="13" lengthAdjust="spacingAndGlyphs" textLength="44" x="135" y="86.042">0x110C</text><rect fill="#FEFECE" filter="url(#f1)" height="35.0938" rx="12.5" ry="12.5" style="stroke: #A80036; stroke-width: 1.5;" width="78" x="31" y="50"/><text fill="#000000" font-family="sans-serif" font-size="12" lengthAdjust="spacingAndGlyphs" textLength="55" x="44" y="72.457">Load 0 12</text><polygon fill="#FBFB77" filter="url(#f1)" points="129,105.0938,129,157.7969,348,157.7969,348,115.0938,338,105.0938,129,105.0938" style="stroke: #A80036; stroke-width: 1.0;"/><polygon fill="#FBFB77" points="129,105.0938,129,127.4453,109,131.4453,129,135.4453,129,157.7969,348,157.7969,348,115.0938,338,105.0938,129,105.0938" style="stroke: #A80036; stroke-width: 1.0;"/><line style="stroke: #A80036; stroke-width: 1.0;" x1="338" x2="338" y1="105.0938" y2="115.0938"/><line style="stroke: #A80036; stroke-width: 1.0;" x1="348" x2="338" y1="115.0938" y2="115.0938"/><text fill="#000000" font-family="sans-serif" font-size="13" lengthAdjust="spacingAndGlyphs" textLength="198" x="135" y="123.5889">Load the number 15 into register 1</text><line style="stroke: #A80036; stroke-width: 1.0;" x1="129" x2="348" y1="131.4453" y2="131.4453"/><line style="stroke: #A80036; stroke-width: 1.0;" x1="129" x2="348" y1="133.4453" y2="133.4453"/><text fill="#000000" font-family="sans-serif" font-size="13" lengthAdjust="spacingAndGlyphs" textLength="43" x="135" y="149.9404">0x110F</text><rect fill="#FEFECE" filter="url(#f1)" height="35.0938" rx="12.5" ry="12.5" style="stroke: #A80036; stroke-width: 1.5;" width="78" x="31" y="113.8984"/><text fill="#000000" font-family="sans-serif" font-size="12" lengthAdjust="spacingAndGlyphs" textLength="55" x="44" y="136.3555">Load 1 15</text><polygon fill="#FBFB77" filter="url(#f1)" points="126.5,211.7969,126.5,297.2031,346.5,297.2031,346.5,221.7969,336.5,211.7969,126.5,211.7969" style="stroke: #A80036; stroke-width: 1.0;"/><polygon fill="#FBFB77" points="126.5,211.7969,126.5,250.5,106.5,254.5,126.5,258.5,126.5,297.2031,346.5,297.2031,346.5,221.7969,336.5,211.7969,126.5,211.7969" style="stroke: #A80036; stroke-width: 1.0;"/><line style="stroke: #A80036; stroke-width: 1.0;" x1="336.5" x2="336.5" y1="211.7969" y2="221.7969"/><line style="stroke: #A80036; stroke-width: 1.0;" x1="346.5" x2="336.5" y1="221.7969" y2="221.7969"/><text fill="#000000" font-family="sans-serif" font-size="13" lengthAdjust="spacingAndGlyphs" textLength="199" x="132.5" y="230.292">Compute the modulus of register 0</text><text fill="#000000" font-family="sans-serif" font-size="13" lengthAdjust="spacingAndGlyphs" textLength="195" x="132.5" y="246.6436">and register 1 and store the result</text><text fill="#000000" font-family="sans-serif" font-size="13" lengthAdjust="spacingAndGlyphs" textLength="79" x="132.5" y="262.9951">into register 2</text><line style="stroke: #A80036; stroke-width: 1.0;" x1="126.5" x2="346.5" y1="270.8516" y2="270.8516"/><line style="stroke: #A80036; stroke-width: 1.0;" x1="126.5" x2="346.5" y1="272.8516" y2="272.8516"/><text fill="#000000" font-family="sans-serif" font-size="13" lengthAdjust="spacingAndGlyphs" textLength="42" x="132.5" y="289.3467">0x2012</text><rect fill="#FEFECE" filter="url(#f1)" height="35.0938" rx="12.5" ry="12.5" style="stroke: #A80036; stroke-width: 1.5;" width="73" x="33.5" y="236.9531"/><text fill="#000000" font-family="sans-serif" font-size="12" lengthAdjust="spacingAndGlyphs" textLength="53" x="43.5" y="259.4102">Mod 0 1 2</text><polygon fill="#FBFB77" filter="url(#f1)" points="125.5,307.2031,125.5,376.2578,354.5,376.2578,354.5,317.2031,344.5,307.2031,125.5,307.2031" style="stroke: #A80036; stroke-width: 1.0;"/><polygon fill="#FBFB77" points="125.5,307.2031,125.5,337.7305,105.5,341.7305,125.5,345.7305,125.5,376.2578,354.5,376.2578,354.5,317.2031,344.5,307.2031,125.5,307.2031" style="stroke: #A80036; stroke-width: 1.0;"/><line style="stroke: #A80036; stroke-width: 1.0;" x1="344.5" x2="344.5" y1="307.2031" y2="317.2031"/><line style="stroke: #A80036; stroke-width: 1.0;" x1="354.5" x2="344.5" y1="317.2031" y2="317.2031"/><text fill="#000000" font-family="sans-serif" font-size="13" lengthAdjust="spacingAndGlyphs" textLength="204" x="131.5" y="325.6982">Swap the data in register 1 with the</text><text fill="#000000" font-family="sans-serif" font-size="13" lengthAdjust="spacingAndGlyphs" textLength="97" x="131.5" y="342.0498">data in register 0</text><line style="stroke: #A80036; stroke-width: 1.0;" x1="125.5" x2="354.5" y1="349.9063" y2="349.9063"/><line style="stroke: #A80036; stroke-width: 1.0;" x1="125.5" x2="354.5" y1="351.9063" y2="351.9063"/><text fill="#000000" font-family="sans-serif" font-size="13" lengthAdjust="spacingAndGlyphs" textLength="42" x="131.5" y="368.4014">0x3010</text><rect fill="#FEFECE" filter="url(#f1)" height="35.0938" rx="12.5" ry="12.5" style="stroke: #A80036; stroke-width: 1.5;" width="71" x="34.5" y="324.1836"/><text fill="#000000" font-family="sans-serif" font-size="12" lengthAdjust="spacingAndGlyphs" textLength="51" x="44.5" y="346.6406">Swap 1 0</text><polygon fill="#FBFB77" filter="url(#f1)" points="125.5,386.2578,125.5,455.3125,354.5,455.3125,354.5,396.2578,344.5,386.2578,125.5,386.2578" style="stroke: #A80036; stroke-width: 1.0;"/><polygon fill="#FBFB77" points="125.5,386.2578,125.5,416.7852,105.5,420.7852,125.5,424.7852,125.5,455.3125,354.5,455.3125,354.5,396.2578,344.5,386.2578,125.5,386.2578" style="stroke: #A80036; stroke-width: 1.0;"/><line style="stroke: #A80036; stroke-width: 1.0;" x1="344.5" x2="344.5" y1="386.2578" y2="396.2578"/><line style="stroke: #A80036; stroke-width: 1.0;" x1="354.5" x2="344.5" y1="396.2578" y2="396.2578"/><text fill="#000000" font-family="sans-serif" font-size="13" lengthAdjust="spacingAndGlyphs" textLength="204" x="131.5" y="404.7529">Swap the data in register 2 with the</text><text fill="#000000" font-family="sans-serif" font-size="13" lengthAdjust="spacingAndGlyphs" textLength="97" x="131.5" y="421.1045">data in register 1</text><line style="stroke: #A80036; stroke-width: 1.0;" x1="125.5" x2="354.5" y1="428.9609" y2="428.9609"/><line style="stroke: #A80036; stroke-width: 1.0;" x1="125.5" x2="354.5" y1="430.9609" y2="430.9609"/><text fill="#000000" font-family="sans-serif" font-size="13" lengthAdjust="spacingAndGlyphs" textLength="42" x="131.5" y="447.4561">0x3021</text><rect fill="#FEFECE" filter="url(#f1)" height="35.0938" rx="12.5" ry="12.5" style="stroke: #A80036; stroke-width: 1.5;" width="71" x="34.5" y="403.2383"/><text fill="#000000" font-family="sans-serif" font-size="12" lengthAdjust="spacingAndGlyphs" textLength="51" x="44.5" y="425.6953">Swap 2 1</text><polygon fill="#FEFECE" filter="url(#f1)" points="70,177.7969,82,189.7969,70,201.7969,58,189.7969,70,177.7969" style="stroke: #A80036; stroke-width: 1.5;"/><polygon fill="#FEFECE" filter="url(#f1)" points="32,475.3125,108,475.3125,120,487.3125,108,499.3125,32,499.3125,20,487.3125,32,475.3125" style="stroke: #A80036; stroke-width: 1.5;"/><text fill="#000000" font-family="sans-serif" font-size="11" lengthAdjust="spacingAndGlyphs" textLength="76" x="32" y="491.8135">BranchZero 1 3</text><polygon fill="#FBFB77" filter="url(#f1)" points="112.5,509.3125,112.5,578.3672,347.5,578.3672,347.5,519.3125,337.5,509.3125,112.5,509.3125" style="stroke: #A80036; stroke-width: 1.0;"/><polygon fill="#FBFB77" points="112.5,509.3125,112.5,539.8398,92.5,543.8398,112.5,547.8398,112.5,578.3672,347.5,578.3672,347.5,519.3125,337.5,509.3125,112.5,509.3125" style="stroke: #A80036; stroke-width: 1.0;"/><line style="stroke: #A80036; stroke-width: 1.0;" x1="337.5" x2="337.5" y1="509.3125" y2="519.3125"/><line style="stroke: #A80036; stroke-width: 1.0;" x1="347.5" x2="337.5" y1="519.3125" y2="519.3125"/><text fill="#000000" font-family="sans-serif" font-size="13" lengthAdjust="spacingAndGlyphs" textLength="206" x="118.5" y="527.8076">Terminate the program and print out</text><text fill="#000000" font-family="sans-serif" font-size="13" lengthAdjust="spacingAndGlyphs" textLength="124" x="118.5" y="544.1592">the value or register 0</text><line style="stroke: #A80036; stroke-width: 1.0;" x1="112.5" x2="347.5" y1="552.0156" y2="552.0156"/><line style="stroke: #A80036; stroke-width: 1.0;" x1="112.5" x2="347.5" y1="554.0156" y2="554.0156"/><text fill="#000000" font-family="sans-serif" font-size="13" lengthAdjust="spacingAndGlyphs" textLength="42" x="118.5" y="570.5107">0x0000</text><rect fill="#FEFECE" filter="url(#f1)" height="35.0938" rx="12.5" ry="12.5" style="stroke: #A80036; stroke-width: 1.5;" width="45" x="47.5" y="526.293"/><text fill="#000000" font-family="sans-serif" font-size="12" lengthAdjust="spacingAndGlyphs" textLength="22" x="60.5" y="548.75">Halt</text><ellipse cx="70" cy="608.3672" fill="none" filter="url(#f1)" rx="10" ry="10" style="stroke: #000000; stroke-width: 1.0;"/><ellipse cx="70.5" cy="608.8672" fill="#000000" filter="url(#f1)" rx="6" ry="6" style="stroke: none; stroke-width: 1.0;"/><line style="stroke: #A80036; stroke-width: 1.5;" x1="70" x2="70" y1="30" y2="50"/><polygon fill="#A80036" points="66,40,70,50,74,40,70,44" style="stroke: #A80036; stroke-width: 1.0;"/><line style="stroke: #A80036; stroke-width: 1.5;" x1="70" x2="70" y1="85.0938" y2="113.8984"/><polygon fill="#A80036" points="66,103.8984,70,113.8984,74,103.8984,70,107.8984" style="stroke: #A80036; stroke-width: 1.0;"/><line style="stroke: #A80036; stroke-width: 1.5;" x1="70" x2="70" y1="272.0469" y2="324.1836"/><polygon fill="#A80036" points="66,314.1836,70,324.1836,74,314.1836,70,318.1836" style="stroke: #A80036; stroke-width: 1.0;"/><line style="stroke: #A80036; stroke-width: 1.5;" x1="70" x2="70" y1="359.2773" y2="403.2383"/><polygon fill="#A80036" points="66,393.2383,70,403.2383,74,393.2383,70,397.2383" style="stroke: #A80036; stroke-width: 1.0;"/><line style="stroke: #A80036; stroke-width: 1.5;" x1="70" x2="70" y1="201.7969" y2="236.9531"/><polygon fill="#A80036" points="66,226.9531,70,236.9531,74,226.9531,70,230.9531" style="stroke: #A80036; stroke-width: 1.0;"/><line style="stroke: #A80036; stroke-width: 1.5;" x1="120" x2="366.5" y1="487.3125" y2="487.3125"/><polygon fill="#A80036" points="362.5,367.5547,366.5,357.5547,370.5,367.5547,366.5,363.5547" style="stroke: #A80036; stroke-width: 1.5;"/><line style="stroke: #A80036; stroke-width: 1.5;" x1="366.5" x2="366.5" y1="189.7969" y2="487.3125"/><line style="stroke: #A80036; stroke-width: 1.5;" x1="366.5" x2="82" y1="189.7969" y2="189.7969"/><polygon fill="#A80036" points="92,185.7969,82,189.7969,92,193.7969,88,189.7969" style="stroke: #A80036; stroke-width: 1.0;"/><line style="stroke: #A80036; stroke-width: 1.5;" x1="70" x2="70" y1="438.332" y2="475.3125"/><polygon fill="#A80036" points="66,465.3125,70,475.3125,74,465.3125,70,469.3125" style="stroke: #A80036; stroke-width: 1.0;"/><line style="stroke: #A80036; stroke-width: 1.5;" x1="70" x2="70" y1="148.9922" y2="177.7969"/><polygon fill="#A80036" points="66,167.7969,70,177.7969,74,167.7969,70,171.7969" style="stroke: #A80036; stroke-width: 1.0;"/><line style="stroke: #A80036; stroke-width: 1.5;" x1="70" x2="70" y1="499.3125" y2="526.293"/><polygon fill="#A80036" points="66,516.293,70,526.293,74,516.293,70,520.293" style="stroke: #A80036; stroke-width: 1.0;"/><line style="stroke: #A80036; stroke-width: 1.5;" x1="70" x2="70" y1="561.3867" y2="598.3672"/><polygon fill="#A80036" points="66,588.3672,70,598.3672,74,588.3672,70,592.3672" style="stroke: #A80036; stroke-width: 1.0;"/></g></svg>