<?xml version="1.0" encoding="UTF-8" standalone="yes"?><svg xmlns="http://www.w3.org/2000/svg" xmlns:xlink="http://www.w3.org/1999/xlink" height="78px" style="width:288px;height:78px;" version="1.1" viewBox="0 0 288 78" width="288px"><defs><filter height="300%" id="f1" width="300%" x="-1" y="-1"><feGaussianBlur result="blurOut" stdDeviation="2.0"/><feColorMatrix in="blurOut" result="blurOut2" type="matrix" values="0 0 0 0 0 0 0 0 0 0 0 0 0 0 0 0 0 0 .4 0"/><feOffset dx="4.0" dy="4.0" in="blurOut2" result="blurOut3"/><feBlend in="SourceGraphic" in2="blurOut3" mode="normal"/></filter></defs><g><polygon fill="#FEFECE" filter="url(#f1)" points="6,18,16,8,127,8,127,63.2188,117,73.2188,6,73.2188,6,18" style="stroke: #000000; stroke-width: 1.5;"/><line style="stroke: #000000; stroke-width: 1.5;" x1="117" x2="126" y1="18" y2="9"/><line style="stroke: #000000; stroke-width: 1.5;" x1="6" x2="117" y1="18" y2="18"/><line style="stroke: #000000; stroke-width: 1.5;" x1="117" x2="117" y1="18" y2="73.2188"/><text fill="#000000" font-family="sans-serif" font-size="14" font-style="italic" lengthAdjust="spacingAndGlyphs" textLength="81" x="21" y="42.5332">«Register 1»</text><text fill="#000000" font-family="sans-serif" font-size="14" lengthAdjust="spacingAndGlyphs" textLength="62" x="30.5" y="60.1426">Data: 300</text><polygon fill="#FEFECE" filter="url(#f1)" points="162,18,172,8,283,8,283,63.2188,273,73.2188,162,73.2188,162,18" style="stroke: #000000; stroke-width: 1.5;"/><line style="stroke: #000000; stroke-width: 1.5;" x1="273" x2="282" y1="18" y2="9"/><line style="stroke: #000000; stroke-width: 1.5;" x1="162" x2="273" y1="18" y2="18"/><line style="stroke: #000000; stroke-width: 1.5;" x1="273" x2="273" y1="18" y2="73.2188"/><text fill="#000000" font-family="sans-serif" font-size="14" font-style="italic" lengthAdjust="spacingAndGlyphs" textLength="81" x="177" y="42.5332">«Register 2»</text><text fill="#000000" font-family="sans-serif" font-size="14" lengthAdjust="spacingAndGlyphs" textLength="62" x="186.5" y="60.1426">Data: 300</text><path d="M132.275,40.5 C142.11,40.5 151.944,40.5 161.778,40.5 " fill="none" style="stroke: #A80036; stroke-width: 1.0;"/><polygon fill="#A80036" points="127.133,40.5,136.133,44.5,132.133,40.5,136.133,36.5,127.133,40.5" style="stroke: #A80036; stroke-width: 1.0;"/></g></svg>