<?xml version="1.0" encoding="UTF-8" standalone="yes"?><svg xmlns="http://www.w3.org/2000/svg" xmlns:xlink="http://www.w3.org/1999/xlink" height="345px" style="width:92px;height:345px;" version="1.1" viewBox="0 0 92 345" width="92px"><defs><filter height="300%" id="f1" width="300%" x="-1" y="-1"><feGaussianBlur result="blurOut" stdDeviation="2.0"/><feColorMatrix in="blurOut" result="blurOut2" type="matrix" values="0 0 0 0 0 0 0 0 0 0 0 0 0 0 0 0 0 0 .4 0"/><feOffset dx="4.0" dy="4.0" in="blurOut2" result="blurOut3"/><feBlend in="SourceGraphic" in2="blurOut3" mode="normal"/></filter></defs><g><ellipse cx="44" cy="20" fill="#000000" filter="url(#f1)" rx="10" ry="10" style="stroke: none; stroke-width: 1.0;"/><rect fill="#FEFECE" filter="url(#f1)" height="35.0938" rx="12.5" ry="12.5" style="stroke: #A80036; stroke-width: 1.5;" width="46" x="21" y="94"/><text fill="#000000" font-family="sans-serif" font-size="12" lengthAdjust="spacingAndGlyphs" textLength="26" x="31" y="116.457">fetch</text><rect fill="#FEFECE" filter="url(#f1)" height="35.0938" rx="12.5" ry="12.5" style="stroke: #A80036; stroke-width: 1.5;" width="61" x="13.5" y="149.0938"/><text fill="#000000" font-family="sans-serif" font-size="12" lengthAdjust="spacingAndGlyphs" textLength="41" x="23.5" y="171.5508">decode</text><rect fill="#FEFECE" filter="url(#f1)" height="35.0938" rx="12.5" ry="12.5" style="stroke: #A80036; stroke-width: 1.5;" width="62" x="13" y="219.1875"/><text fill="#000000" font-family="sans-serif" font-size="12" lengthAdjust="spacingAndGlyphs" textLength="42" x="23" y="241.6445">execute</text><polygon fill="#FEFECE" filter="url(#f1)" points="44,50,56,62,44,74,32,62,44,50" style="stroke: #A80036; stroke-width: 1.5;"/><polygon fill="#FEFECE" filter="url(#f1)" points="32,274.2813,56,274.2813,68,286.2813,56,298.2813,32,298.2813,20,286.2813,32,274.2813" style="stroke: #A80036; stroke-width: 1.5;"/><text fill="#000000" font-family="sans-serif" font-size="11" lengthAdjust="spacingAndGlyphs" textLength="23" x="32.5" y="290.7822">halt?</text><ellipse cx="44" cy="328.2813" fill="none" filter="url(#f1)" rx="10" ry="10" style="stroke: #000000; stroke-width: 1.0;"/><ellipse cx="44.5" cy="328.7813" fill="#000000" filter="url(#f1)" rx="6" ry="6" style="stroke: none; stroke-width: 1.0;"/><line style="stroke: #A80036; stroke-width: 1.5;" x1="44" x2="44" y1="129.0938" y2="149.0938"/><polygon fill="#A80036" points="40,139.0938,44,149.0938,48,139.0938,44,143.0938" style="stroke: #A80036; stroke-width: 1.0;"/><line style="stroke: #A80036; stroke-width: 1.5;" x1="44" x2="44" y1="184.1875" y2="219.1875"/><polygon fill="#A80036" points="40,209.1875,44,219.1875,48,209.1875,44,213.1875" style="stroke: #A80036; stroke-width: 1.0;"/><line style="stroke: #A80036; stroke-width: 1.5;" x1="44" x2="44" y1="74" y2="94"/><polygon fill="#A80036" points="40,84,44,94,48,84,44,88" style="stroke: #A80036; stroke-width: 1.0;"/><line style="stroke: #A80036; stroke-width: 1.5;" x1="68" x2="87" y1="286.2813" y2="286.2813"/><polygon fill="#A80036" points="83,200.6406,87,190.6406,91,200.6406,87,196.6406" style="stroke: #A80036; stroke-width: 1.5;"/><line style="stroke: #A80036; stroke-width: 1.5;" x1="87" x2="87" y1="62" y2="286.2813"/><line style="stroke: #A80036; stroke-width: 1.5;" x1="87" x2="56" y1="62" y2="62"/><polygon fill="#A80036" points="66,58,56,62,66,66,62,62" style="stroke: #A80036; stroke-width: 1.0;"/><line style="stroke: #A80036; stroke-width: 1.5;" x1="44" x2="44" y1="254.2813" y2="274.2813"/><polygon fill="#A80036" points="40,264.2813,44,274.2813,48,264.2813,44,268.2813" style="stroke: #A80036; stroke-width: 1.0;"/><line style="stroke: #A80036; stroke-width: 1.5;" x1="44" x2="44" y1="30" y2="50"/><polygon fill="#A80036" points="40,40,44,50,48,40,44,44" style="stroke: #A80036; stroke-width: 1.0;"/><line style="stroke: #A80036; stroke-width: 1.5;" x1="44" x2="44" y1="298.2813" y2="318.2813"/><polygon fill="#A80036" points="40,308.2813,44,318.2813,48,308.2813,44,312.2813" style="stroke: #A80036; stroke-width: 1.0;"/></g></svg>