<?xml version="1.0" encoding="UTF-8" standalone="yes"?><svg xmlns="http://www.w3.org/2000/svg" xmlns:xlink="http://www.w3.org/1999/xlink" height="345px" style="width:108px;height:345px;" version="1.1" viewBox="0 0 108 345" width="108px"><defs><filter height="300%" id="f1" width="300%" x="-1" y="-1"><feGaussianBlur result="blurOut" stdDeviation="2.0"/><feColorMatrix in="blurOut" result="blurOut2" type="matrix" values="0 0 0 0 0 0 0 0 0 0 0 0 0 0 0 0 0 0 .4 0"/><feOffset dx="4.0" dy="4.0" in="blurOut2" result="blurOut3"/><feBlend in="SourceGraphic" in2="blurOut3" mode="normal"/></filter></defs><g><ellipse cx="55.5" cy="20" fill="#000000" filter="url(#f1)" rx="10" ry="10" style="stroke: none; stroke-width: 1.0;"/><rect fill="#FEFECE" filter="url(#f1)" height="35.0938" rx="12.5" ry="12.5" style="stroke: #A80036; stroke-width: 1.5;" width="46" x="32.5" y="94"/><text fill="#000000" font-family="sans-serif" font-size="12" lengthAdjust="spacingAndGlyphs" textLength="26" x="42.5" y="116.457">fetch</text><rect fill="#FEFECE" filter="url(#f1)" height="35.0938" rx="12.5" ry="12.5" style="stroke: #A80036; stroke-width: 1.5;" width="61" x="25" y="149.0938"/><text fill="#000000" font-family="sans-serif" font-size="12" lengthAdjust="spacingAndGlyphs" textLength="41" x="35" y="171.5508">decode</text><rect fill="#FEFECE" filter="url(#f1)" height="35.0938" rx="12.5" ry="12.5" style="stroke: #A80036; stroke-width: 1.5;" width="62" x="24.5" y="219.1875"/><text fill="#000000" font-family="sans-serif" font-size="12" lengthAdjust="spacingAndGlyphs" textLength="42" x="34.5" y="241.6445">execute</text><polygon fill="#FEFECE" filter="url(#f1)" points="55.5,50,67.5,62,55.5,74,43.5,62,55.5,50" style="stroke: #A80036; stroke-width: 1.5;"/><polygon fill="#FEFECE" filter="url(#f1)" points="32,274.2813,79,274.2813,91,286.2813,79,298.2813,32,298.2813,20,286.2813,32,274.2813" style="stroke: #A80036; stroke-width: 1.5;"/><text fill="#000000" font-family="sans-serif" font-size="11" lengthAdjust="spacingAndGlyphs" textLength="47" x="32" y="290.7822">continue?</text><ellipse cx="55.5" cy="328.2813" fill="none" filter="url(#f1)" rx="10" ry="10" style="stroke: #000000; stroke-width: 1.0;"/><ellipse cx="56" cy="328.7813" fill="#000000" filter="url(#f1)" rx="6" ry="6" style="stroke: none; stroke-width: 1.0;"/><line style="stroke: #A80036; stroke-width: 1.5;" x1="55.5" x2="55.5" y1="129.0938" y2="149.0938"/><polygon fill="#A80036" points="51.5,139.0938,55.5,149.0938,59.5,139.0938,55.5,143.0938" style="stroke: #A80036; stroke-width: 1.0;"/><line style="stroke: #A80036; stroke-width: 1.5;" x1="55.5" x2="55.5" y1="184.1875" y2="219.1875"/><polygon fill="#A80036" points="51.5,209.1875,55.5,219.1875,59.5,209.1875,55.5,213.1875" style="stroke: #A80036; stroke-width: 1.0;"/><line style="stroke: #A80036; stroke-width: 1.5;" x1="55.5" x2="55.5" y1="74" y2="94"/><polygon fill="#A80036" points="51.5,84,55.5,94,59.5,84,55.5,88" style="stroke: #A80036; stroke-width: 1.0;"/><line style="stroke: #A80036; stroke-width: 1.5;" x1="91" x2="103" y1="286.2813" y2="286.2813"/><polygon fill="#A80036" points="99,200.6406,103,190.6406,107,200.6406,103,196.6406" style="stroke: #A80036; stroke-width: 1.5;"/><line style="stroke: #A80036; stroke-width: 1.5;" x1="103" x2="103" y1="62" y2="286.2813"/><line style="stroke: #A80036; stroke-width: 1.5;" x1="103" x2="67.5" y1="62" y2="62"/><polygon fill="#A80036" points="77.5,58,67.5,62,77.5,66,73.5,62" style="stroke: #A80036; stroke-width: 1.0;"/><line style="stroke: #A80036; stroke-width: 1.5;" x1="55.5" x2="55.5" y1="254.2813" y2="274.2813"/><polygon fill="#A80036" points="51.5,264.2813,55.5,274.2813,59.5,264.2813,55.5,268.2813" style="stroke: #A80036; stroke-width: 1.0;"/><line style="stroke: #A80036; stroke-width: 1.5;" x1="55.5" x2="55.5" y1="30" y2="50"/><polygon fill="#A80036" points="51.5,40,55.5,50,59.5,40,55.5,44" style="stroke: #A80036; stroke-width: 1.0;"/><line style="stroke: #A80036; stroke-width: 1.5;" x1="55.5" x2="55.5" y1="298.2813" y2="318.2813"/><polygon fill="#A80036" points="51.5,308.2813,55.5,318.2813,59.5,308.2813,55.5,312.2813" style="stroke: #A80036; stroke-width: 1.0;"/></g></svg>