<?xml version="1.0" encoding="UTF-8" standalone="yes"?><svg xmlns="http://www.w3.org/2000/svg" xmlns:xlink="http://www.w3.org/1999/xlink" height="625px" style="width:352px;height:625px;" version="1.1" viewBox="0 0 352 625" width="352px"><defs><filter height="300%" id="f1" width="300%" x="-1" y="-1"><feGaussianBlur result="blurOut" stdDeviation="2.0"/><feColorMatrix in="blurOut" result="blurOut2" type="matrix" values="0 0 0 0 0 0 0 0 0 0 0 0 0 0 0 0 0 0 .4 0"/><feOffset dx="4.0" dy="4.0" in="blurOut2" result="blurOut3"/><feBlend in="SourceGraphic" in2="blurOut3" mode="normal"/></filter></defs><g><ellipse cx="51" cy="20" fill="#000000" filter="url(#f1)" rx="10" ry="10" style="stroke: none; stroke-width: 1.0;"/><polygon fill="#FBFB77" filter="url(#f1)" points="110,41.1953,110,93.8984,329,93.8984,329,51.1953,319,41.1953,110,41.1953" style="stroke: #A80036; stroke-width: 1.0;"/><polygon fill="#FBFB77" points="110,41.1953,110,63.5469,90,67.5469,110,71.5469,110,93.8984,329,93.8984,329,51.1953,319,41.1953,110,41.1953" style="stroke: #A80036; stroke-width: 1.0;"/><line style="stroke: #A80036; stroke-width: 1.0;" x1="319" x2="319" y1="41.1953" y2="51.1953"/><line style="stroke: #A80036; stroke-width: 1.0;" x1="329" x2="319" y1="51.1953" y2="51.1953"/><text fill="#000000" font-family="sans-serif" font-size="13" lengthAdjust="spacingAndGlyphs" textLength="198" x="116" y="59.6904">Load the number 12 into register 0</text><line style="stroke: #A80036; stroke-width: 1.0;" x1="110" x2="329" y1="67.5469" y2="67.5469"/><line style="stroke: #A80036; stroke-width: 1.0;" x1="110" x2="329" y1="69.5469" y2="69.5469"/><text fill="#000000" font-family="sans-serif" font-size="13" lengthAdjust="spacingAndGlyphs" textLength="44" x="116" y="86.042">0x110C</text><rect fill="#FEFECE" filter="url(#f1)" height="35.0938" rx="12.5" ry="12.5" style="stroke: #A80036; stroke-width: 1.5;" width="78" x="12" y="50"/><text fill="#000000" font-family="sans-serif" font-size="12" lengthAdjust="spacingAndGlyphs" textLength="55" x="25" y="72.457">Load 0 12</text><polygon fill="#FBFB77" filter="url(#f1)" points="110,105.0938,110,157.7969,329,157.7969,329,115.0938,319,105.0938,110,105.0938" style="stroke: #A80036; stroke-width: 1.0;"/><polygon fill="#FBFB77" points="110,105.0938,110,127.4453,90,131.4453,110,135.4453,110,157.7969,329,157.7969,329,115.0938,319,105.0938,110,105.0938" style="stroke: #A80036; stroke-width: 1.0;"/><line style="stroke: #A80036; stroke-width: 1.0;" x1="319" x2="319" y1="105.0938" y2="115.0938"/><line style="stroke: #A80036; stroke-width: 1.0;" x1="329" x2="319" y1="115.0938" y2="115.0938"/><text fill="#000000" font-family="sans-serif" font-size="13" lengthAdjust="spacingAndGlyphs" textLength="198" x="116" y="123.5889">Load the number 15 into register 1</text><line style="stroke: #A80036; stroke-width: 1.0;" x1="110" x2="329" y1="131.4453" y2="131.4453"/><line style="stroke: #A80036; stroke-width: 1.0;" x1="110" x2="329" y1="133.4453" y2="133.4453"/><text fill="#000000" font-family="sans-serif" font-size="13" lengthAdjust="spacingAndGlyphs" textLength="43" x="116" y="149.9404">0x110F</text><rect fill="#FEFECE" filter="url(#f1)" height="35.0938" rx="12.5" ry="12.5" style="stroke: #A80036; stroke-width: 1.5;" width="78" x="12" y="113.8984"/><text fill="#000000" font-family="sans-serif" font-size="12" lengthAdjust="spacingAndGlyphs" textLength="55" x="25" y="136.3555">Load 1 15</text><polygon fill="#FBFB77" filter="url(#f1)" points="107.5,211.7969,107.5,297.2031,327.5,297.2031,327.5,221.7969,317.5,211.7969,107.5,211.7969" style="stroke: #A80036; stroke-width: 1.0;"/><polygon fill="#FBFB77" points="107.5,211.7969,107.5,250.5,87.5,254.5,107.5,258.5,107.5,297.2031,327.5,297.2031,327.5,221.7969,317.5,211.7969,107.5,211.7969" style="stroke: #A80036; stroke-width: 1.0;"/><line style="stroke: #A80036; stroke-width: 1.0;" x1="317.5" x2="317.5" y1="211.7969" y2="221.7969"/><line style="stroke: #A80036; stroke-width: 1.0;" x1="327.5" x2="317.5" y1="221.7969" y2="221.7969"/><text fill="#000000" font-family="sans-serif" font-size="13" lengthAdjust="spacingAndGlyphs" textLength="199" x="113.5" y="230.292">Compute the modulus of register 0</text><text fill="#000000" font-family="sans-serif" font-size="13" lengthAdjust="spacingAndGlyphs" textLength="195" x="113.5" y="246.6436">and register 1 and store the result</text><text fill="#000000" font-family="sans-serif" font-size="13" lengthAdjust="spacingAndGlyphs" textLength="79" x="113.5" y="262.9951">into register 2</text><line style="stroke: #A80036; stroke-width: 1.0;" x1="107.5" x2="327.5" y1="270.8516" y2="270.8516"/><line style="stroke: #A80036; stroke-width: 1.0;" x1="107.5" x2="327.5" y1="272.8516" y2="272.8516"/><text fill="#000000" font-family="sans-serif" font-size="13" lengthAdjust="spacingAndGlyphs" textLength="42" x="113.5" y="289.3467">0x2012</text><rect fill="#FEFECE" filter="url(#f1)" height="35.0938" rx="12.5" ry="12.5" style="stroke: #A80036; stroke-width: 1.5;" width="73" x="14.5" y="236.9531"/><text fill="#000000" font-family="sans-serif" font-size="12" lengthAdjust="spacingAndGlyphs" textLength="53" x="24.5" y="259.4102">Mod 0 1 2</text><polygon fill="#FBFB77" filter="url(#f1)" points="106.5,307.2031,106.5,376.2578,335.5,376.2578,335.5,317.2031,325.5,307.2031,106.5,307.2031" style="stroke: #A80036; stroke-width: 1.0;"/><polygon fill="#FBFB77" points="106.5,307.2031,106.5,337.7305,86.5,341.7305,106.5,345.7305,106.5,376.2578,335.5,376.2578,335.5,317.2031,325.5,307.2031,106.5,307.2031" style="stroke: #A80036; stroke-width: 1.0;"/><line style="stroke: #A80036; stroke-width: 1.0;" x1="325.5" x2="325.5" y1="307.2031" y2="317.2031"/><line style="stroke: #A80036; stroke-width: 1.0;" x1="335.5" x2="325.5" y1="317.2031" y2="317.2031"/><text fill="#000000" font-family="sans-serif" font-size="13" lengthAdjust="spacingAndGlyphs" textLength="204" x="112.5" y="325.6982">Swap the data in register 1 with the</text><text fill="#000000" font-family="sans-serif" font-size="13" lengthAdjust="spacingAndGlyphs" textLength="97" x="112.5" y="342.0498">data in register 0</text><line style="stroke: #A80036; stroke-width: 1.0;" x1="106.5" x2="335.5" y1="349.9063" y2="349.9063"/><line style="stroke: #A80036; stroke-width: 1.0;" x1="106.5" x2="335.5" y1="351.9063" y2="351.9063"/><text fill="#000000" font-family="sans-serif" font-size="13" lengthAdjust="spacingAndGlyphs" textLength="42" x="112.5" y="368.4014">0x3010</text><rect fill="#FEFECE" filter="url(#f1)" height="35.0938" rx="12.5" ry="12.5" style="stroke: #A80036; stroke-width: 1.5;" width="71" x="15.5" y="324.1836"/><text fill="#000000" font-family="sans-serif" font-size="12" lengthAdjust="spacingAndGlyphs" textLength="51" x="25.5" y="346.6406">Swap 1 0</text><polygon fill="#FBFB77" filter="url(#f1)" points="106.5,386.2578,106.5,455.3125,335.5,455.3125,335.5,396.2578,325.5,386.2578,106.5,386.2578" style="stroke: #A80036; stroke-width: 1.0;"/><polygon fill="#FBFB77" points="106.5,386.2578,106.5,416.7852,86.5,420.7852,106.5,424.7852,106.5,455.3125,335.5,455.3125,335.5,396.2578,325.5,386.2578,106.5,386.2578" style="stroke: #A80036; stroke-width: 1.0;"/><line style="stroke: #A80036; stroke-width: 1.0;" x1="325.5" x2="325.5" y1="386.2578" y2="396.2578"/><line style="stroke: #A80036; stroke-width: 1.0;" x1="335.5" x2="325.5" y1="396.2578" y2="396.2578"/><text fill="#000000" font-family="sans-serif" font-size="13" lengthAdjust="spacingAndGlyphs" textLength="204" x="112.5" y="404.7529">Swap the data in register 2 with the</text><text fill="#000000" font-family="sans-serif" font-size="13" lengthAdjust="spacingAndGlyphs" textLength="97" x="112.5" y="421.1045">data in register 1</text><line style="stroke: #A80036; stroke-width: 1.0;" x1="106.5" x2="335.5" y1="428.9609" y2="428.9609"/><line style="stroke: #A80036; stroke-width: 1.0;" x1="106.5" x2="335.5" y1="430.9609" y2="430.9609"/><text fill="#000000" font-family="sans-serif" font-size="13" lengthAdjust="spacingAndGlyphs" textLength="42" x="112.5" y="447.4561">0x3021</text><rect fill="#FEFECE" filter="url(#f1)" height="35.0938" rx="12.5" ry="12.5" style="stroke: #A80036; stroke-width: 1.5;" width="71" x="15.5" y="403.2383"/><text fill="#000000" font-family="sans-serif" font-size="12" lengthAdjust="spacingAndGlyphs" textLength="51" x="25.5" y="425.6953">Swap 2 1</text><polygon fill="#FEFECE" filter="url(#f1)" points="51,177.7969,63,189.7969,51,201.7969,39,189.7969,51,177.7969" style="stroke: #A80036; stroke-width: 1.5;"/><polygon fill="#FEFECE" filter="url(#f1)" points="32,475.3125,70,475.3125,82,487.3125,70,499.3125,32,499.3125,20,487.3125,32,475.3125" style="stroke: #A80036; stroke-width: 1.5;"/><text fill="#000000" font-family="sans-serif" font-size="11" lengthAdjust="spacingAndGlyphs" textLength="38" x="32" y="491.8135">BEZ 1 3</text><polygon fill="#FBFB77" filter="url(#f1)" points="93.5,509.3125,93.5,578.3672,328.5,578.3672,328.5,519.3125,318.5,509.3125,93.5,509.3125" style="stroke: #A80036; stroke-width: 1.0;"/><polygon fill="#FBFB77" points="93.5,509.3125,93.5,539.8398,73.5,543.8398,93.5,547.8398,93.5,578.3672,328.5,578.3672,328.5,519.3125,318.5,509.3125,93.5,509.3125" style="stroke: #A80036; stroke-width: 1.0;"/><line style="stroke: #A80036; stroke-width: 1.0;" x1="318.5" x2="318.5" y1="509.3125" y2="519.3125"/><line style="stroke: #A80036; stroke-width: 1.0;" x1="328.5" x2="318.5" y1="519.3125" y2="519.3125"/><text fill="#000000" font-family="sans-serif" font-size="13" lengthAdjust="spacingAndGlyphs" textLength="206" x="99.5" y="527.8076">Terminate the program and print out</text><text fill="#000000" font-family="sans-serif" font-size="13" lengthAdjust="spacingAndGlyphs" textLength="123" x="99.5" y="544.1592">the value of register 0</text><line style="stroke: #A80036; stroke-width: 1.0;" x1="93.5" x2="328.5" y1="552.0156" y2="552.0156"/><line style="stroke: #A80036; stroke-width: 1.0;" x1="93.5" x2="328.5" y1="554.0156" y2="554.0156"/><text fill="#000000" font-family="sans-serif" font-size="13" lengthAdjust="spacingAndGlyphs" textLength="42" x="99.5" y="570.5107">0x0000</text><rect fill="#FEFECE" filter="url(#f1)" height="35.0938" rx="12.5" ry="12.5" style="stroke: #A80036; stroke-width: 1.5;" width="45" x="28.5" y="526.293"/><text fill="#000000" font-family="sans-serif" font-size="12" lengthAdjust="spacingAndGlyphs" textLength="22" x="41.5" y="548.75">Halt</text><ellipse cx="51" cy="608.3672" fill="none" filter="url(#f1)" rx="10" ry="10" style="stroke: #000000; stroke-width: 1.0;"/><ellipse cx="51.5" cy="608.8672" fill="#000000" filter="url(#f1)" rx="6" ry="6" style="stroke: none; stroke-width: 1.0;"/><line style="stroke: #A80036; stroke-width: 1.5;" x1="51" x2="51" y1="30" y2="50"/><polygon fill="#A80036" points="47,40,51,50,55,40,51,44" style="stroke: #A80036; stroke-width: 1.0;"/><line style="stroke: #A80036; stroke-width: 1.5;" x1="51" x2="51" y1="85.0938" y2="113.8984"/><polygon fill="#A80036" points="47,103.8984,51,113.8984,55,103.8984,51,107.8984" style="stroke: #A80036; stroke-width: 1.0;"/><line style="stroke: #A80036; stroke-width: 1.5;" x1="51" x2="51" y1="272.0469" y2="324.1836"/><polygon fill="#A80036" points="47,314.1836,51,324.1836,55,314.1836,51,318.1836" style="stroke: #A80036; stroke-width: 1.0;"/><line style="stroke: #A80036; stroke-width: 1.5;" x1="51" x2="51" y1="359.2773" y2="403.2383"/><polygon fill="#A80036" points="47,393.2383,51,403.2383,55,393.2383,51,397.2383" style="stroke: #A80036; stroke-width: 1.0;"/><line style="stroke: #A80036; stroke-width: 1.5;" x1="51" x2="51" y1="201.7969" y2="236.9531"/><polygon fill="#A80036" points="47,226.9531,51,236.9531,55,226.9531,51,230.9531" style="stroke: #A80036; stroke-width: 1.0;"/><line style="stroke: #A80036; stroke-width: 1.5;" x1="82" x2="347.5" y1="487.3125" y2="487.3125"/><polygon fill="#A80036" points="343.5,367.5547,347.5,357.5547,351.5,367.5547,347.5,363.5547" style="stroke: #A80036; stroke-width: 1.5;"/><line style="stroke: #A80036; stroke-width: 1.5;" x1="347.5" x2="347.5" y1="189.7969" y2="487.3125"/><line style="stroke: #A80036; stroke-width: 1.5;" x1="347.5" x2="63" y1="189.7969" y2="189.7969"/><polygon fill="#A80036" points="73,185.7969,63,189.7969,73,193.7969,69,189.7969" style="stroke: #A80036; stroke-width: 1.0;"/><line style="stroke: #A80036; stroke-width: 1.5;" x1="51" x2="51" y1="438.332" y2="475.3125"/><polygon fill="#A80036" points="47,465.3125,51,475.3125,55,465.3125,51,469.3125" style="stroke: #A80036; stroke-width: 1.0;"/><line style="stroke: #A80036; stroke-width: 1.5;" x1="51" x2="51" y1="148.9922" y2="177.7969"/><polygon fill="#A80036" points="47,167.7969,51,177.7969,55,167.7969,51,171.7969" style="stroke: #A80036; stroke-width: 1.0;"/><line style="stroke: #A80036; stroke-width: 1.5;" x1="51" x2="51" y1="499.3125" y2="526.293"/><polygon fill="#A80036" points="47,516.293,51,526.293,55,516.293,51,520.293" style="stroke: #A80036; stroke-width: 1.0;"/><line style="stroke: #A80036; stroke-width: 1.5;" x1="51" x2="51" y1="561.3867" y2="598.3672"/><polygon fill="#A80036" points="47,588.3672,51,598.3672,55,588.3672,51,592.3672" style="stroke: #A80036; stroke-width: 1.0;"/></g></svg>